<svg width="40" height="41" viewBox="0 0 40 41" fill="none" xmlns="http://www.w3.org/2000/svg">
<circle cx="20" cy="20" r="20" fill="#EDEDED"/>
<circle cx="20" cy="20" r="20" fill="#E6E8F9"/>
<mask id="mask0" mask-type="alpha" maskUnits="userSpaceOnUse" x="2" y="5" width="36" height="36">
<circle cx="20.1725" cy="22.8805" r="17.4138" fill="#C4C4C4"/>
</mask>
<g mask="url(#mask0)">
<path d="M16.5833 18.9352C16.5833 18.9352 14.1329 24.0295 13.7148 27.8441C13.6755 28.2149 13.7112 28.5895 13.8199 28.9467C13.9286 29.3039 14.1082 29.6364 14.3483 29.9253C14.5884 30.2142 14.8843 30.4537 15.2191 30.6301C15.5538 30.8065 15.9208 30.9163 16.2989 30.9532C18.2642 31.1337 20.9822 30.8137 22.638 28.2379L25.9832 24.2018C26.5695 23.3265 26.8635 22.294 26.8246 21.2474C26.7856 20.2008 26.4156 19.192 25.7658 18.361C23.5329 15.1371 17.9213 15.7523 16.5833 18.9352Z" fill="#F4A28C"/>
<path d="M24.7214 25.1598L26.0986 43.7505L15.5227 43.7588L18.6853 30.5673L24.7214 25.1598Z" fill="#F4A28C"/>
<path d="M17.8185 19.5135C19.4355 20.1927 21.1241 20.681 22.851 20.9686C22.1111 21.5223 21.5468 22.2836 21.2278 23.1589C20.9088 24.0341 20.8488 24.9849 21.0554 25.8943C21.2405 26.7799 21.7228 27.5727 22.4199 28.1371C23.1171 28.7015 23.9856 29.0025 24.8771 28.9886L27.3481 22.0307C27.7254 21.0451 27.8327 19.9743 27.6586 18.9318C27.4846 17.8893 27.0358 16.9141 26.3597 16.1098C25.7802 15.4107 25.1585 14.7488 24.4983 14.1278C22.851 12.5891 19.4657 12.84 18.1973 10.8329C18.0679 10.6331 17.8899 10.4707 17.6805 10.3614C17.4711 10.252 17.2375 10.1994 17.0022 10.2087C16.7669 10.2179 16.5379 10.2887 16.3375 10.4142C16.1371 10.5397 15.972 10.7156 15.8582 10.9249C14.7792 12.9152 13.9473 16.3691 16.3359 18.5685C16.7748 18.965 17.2759 19.2844 17.8185 19.5135Z" fill="#24285B"/>
<path d="M20.6283 25.455C20.6283 25.455 21.3974 23.271 22.7511 24.0522C24.1048 24.8335 23.0742 28.003 21.0283 27.4703L20.6283 25.455Z" fill="#F4A28C"/>
<path d="M14.9757 22.2422L12.8277 23.7031C12.7037 23.7815 12.6016 23.8899 12.5308 24.0183C12.46 24.1467 12.4229 24.2909 12.4229 24.4375C12.4229 24.5842 12.46 24.7284 12.5308 24.8568C12.6016 24.9852 12.7037 25.0936 12.8277 25.1719L14.6361 26.2538L14.9757 22.2422Z" fill="#F4A28C"/>
<path opacity="0.31" d="M18.5811 30.932C19.8018 30.7138 20.9403 30.1684 21.8753 29.3537C21.8753 29.3537 22.5259 33.3156 17.7108 34.6417L18.5811 30.932Z" fill="#CE8172"/>
</g>
</svg>
